<?xml version="1.0" encoding="utf-8"?>
<!-- Generator: Adobe Illustrator 21.0.2, SVG Export Plug-In . SVG Version: 6.00 Build 0)  -->
<svg version="1.1" id="Layer_1" xmlns="http://www.w3.org/2000/svg" xmlns:xlink="http://www.w3.org/1999/xlink" x="0px" y="0px"
	 viewBox="0 0 100 100" style="enable-background:new 0 0 100 100;" xml:space="preserve">
<path d="M52,59.2V7c0-1.1-0.9-2-2-2s-2,0.9-2,2v52.2c-5.7,1-10,5.9-10,11.8s4.3,10.9,10,11.8V93c0,1.1,0.9,2,2,2s2-0.9,2-2V82.8
	c5.7-1,10-5.9,10-11.8S57.7,60.1,52,59.2z M50,79c-4.4,0-8-3.6-8-8c0-4.4,3.6-8,8-8s8,3.6,8,8C58,75.4,54.4,79,50,79z M82,38.2V7
	c0-1.1-0.9-2-2-2s-2,0.9-2,2v31.2c-5.7,1-10,5.9-10,11.8s4.3,10.9,10,11.8V93c0,1.1,0.9,2,2,2s2-0.9,2-2V61.8c5.7-1,10-5.9,10-11.8
	S87.7,39.1,82,38.2z M80,58c-4.4,0-8-3.6-8-8c0-4.4,3.6-8,8-8s8,3.6,8,8C88,54.4,84.4,58,80,58z M22,16.2V7c0-1.1-0.9-2-2-2
	s-2,0.9-2,2v9.2c-5.7,1-10,5.9-10,11.8s4.3,10.9,10,11.8V93c0,1.1,0.9,2,2,2s2-0.9,2-2V39.8c5.7-1,10-5.9,10-11.8S27.7,17.1,22,16.2
	z M20,36c-4.4,0-8-3.6-8-8c0-4.4,3.6-8,8-8s8,3.6,8,8C28,32.4,24.4,36,20,36z"/>
</svg>
